<svg xmlns="http://www.w3.org/2000/svg" version="1.1" xmlns:xlink="http://www.w3.org/1999/xlink" xmlnsSvgjs="http://svgjs.dev/svgjs" width="164" height="100" viewBox="0 0 1000 600"><rect width="1000" height="600" x="0" y="0" fill="none"/><g><rect width="333.3333333333333" height="333.3333333333333" rx="13.333333333333334" ry="13.333333333333334" y="217.61641533988683" fill="#00aa00" transform="matrix(0.6397325233248898,0,0,0.6397325233248897,0,54.161632228670456)" x="195.3941192626953"/><path d="M411.7780416229933 459.2830816470102L411.7780416229933 335.2057044511184L371.6887571224257 425.4140350533607L351.5697101124898 425.4140350533607L311.2720922848963 335.2057044511184L311.2720922848963 459.2830816470102L291.9863785830642 459.2830816470102L291.9863785830642 309.28308618831636L320.4982824817604 309.28308618831636L362.0459002715097 404.22355950443404L402.99827998404203 309.28308618831636L432.1351838638161 309.28308618831636L432.1351838638161 459.2830816470102L411.7780416229933 459.2830816470102Z " fill="#ffffff" transform="matrix(0.6397325233248898,0,0,0.6397325233248897,0,54.161632228670456)"/><path d="M727.8992325457174 456.8080299096284L727.8992325457174 336.82529529421424L689.1329232324617 424.0566861839529L669.6778192267002 424.0566861839529L630.71005173587 336.82529529421424L630.71005173587 456.8080299096284L612.0607804404062 456.8080299096284L612.0607804404062 311.7581420560214L639.6317710284529 311.7581420560214L679.8082875847298 403.5655115506656L719.4092093479368 311.7581420560214L747.5845744687068 311.7581420560214L747.5845744687068 456.8080299096284L727.8992325457174 456.8080299096284ZM776.5945520394283 384.08162780525043L776.5945520394283 384.08162780525043Q776.5945520394283 368.1088722975616 781.2568698632941 354.4384959621522Q785.9191876871602 340.7681196267428 794.7257880211291 330.7239904876736Q803.5323883550982 320.67986134860445 816.1666940629817 314.9814728972127Q828.8009997708654 309.28308444582103 844.9752134561287 309.28308444582103L844.9752134561287 309.28308444582103Q860.9191892241641 309.28308444582103 873.6686138906617 315.1829310747872Q886.4180385571593 321.0827777037533 895.2246388911283 331.24202580143645Q904.0312392250972 341.40127389911964 908.7798962679236 354.9565312759151Q913.5573330504036 368.54056839236404 913.5573330504036 384.08162780525043L913.5573330504036 384.08162780525043Q913.5573330504036 399.62268721813695 908.8950152265377 413.29306355354635Q904.2326974026718 426.96343988895575 895.3109781100887 437.2378069452529Q886.4180385571593 447.48339426189654 873.7837328492757 453.3832408908626Q861.1206474017384 459.2830875198288 844.9752134561287 459.2830875198288L844.9752134561287 459.2830875198288Q828.8009997708654 459.2830875198288 816.1666940629817 453.3832408908626Q803.5323883550982 447.48339426189654 794.7257880211291 437.2378069452529Q785.9191876871602 426.96343988895575 781.2568698632941 413.29306355354635Q776.5945520394283 399.62268721813695 776.5945520394283 384.08162780525043ZM796.6828103175667 384.08162780525043L796.6828103175667 384.08162780525043Q796.6828103175667 395.2769465304594 799.9061411587579 405.8391109832915Q803.1006922602958 416.4012754361236 809.3171160254503 424.4883822787553Q815.5335397906049 432.57548912138697 824.5703780418019 437.4392651228273Q833.5784365533453 442.30304112426774 844.9752134561287 442.30304112426774L844.9752134561287 442.30304112426774Q856.9763648916354 442.30304112426774 866.0132031428324 437.8421814779762Q875.0212616543758 433.3813218316847 881.1225664609165 425.6107921252415Q887.2526510071106 417.8402624187983 890.3608628896878 407.19175874700574Q893.4690747722651 396.51447533555967 893.4690747722651 384.08162780525043L893.4690747722651 384.08162780525043Q893.4690747722651 372.8863090800415 890.1306249724599 362.5256028047839Q886.8209549123081 352.1648965295263 880.6045311471536 344.0777896868946Q874.388107381999 335.99068284426295 865.3800488704555 331.1269068428225Q856.3719903589121 326.2631308413822 844.9752134561287 326.2631308413822L844.9752134561287 326.2631308413822Q833.5784365533453 326.2631308413822 824.5703780418019 330.7239904876736Q815.5335397906049 335.1848501339651 809.3171160254503 342.9553798404083Q803.1006922602958 350.7259095468516 799.9061411587579 361.2880739996837Q796.6828103175667 371.8502384525157 796.6828103175667 384.08162780525043ZM919.7737568155582 329.16988454638494L919.7737568155582 311.7581420560214L1028.5611727057635 311.7581420560214L1028.5611727057635 329.16988454638494L984.0101357221555 329.16988454638494L984.0101357221555 456.8080299096284L964.3247937991661 456.8080299096284L964.3247937991661 329.16988454638494L919.7737568155582 329.16988454638494ZM1165.1210373615897 456.8080299096284L1165.1210373615897 336.82529529421424L1126.354728048334 424.0566861839529L1106.8996240425727 424.0566861839529L1067.9318565517424 336.82529529421424L1067.9318565517424 456.8080299096284L1049.2825852562787 456.8080299096284L1049.2825852562787 311.7581420560214L1076.8535758443254 311.7581420560214L1117.0300924006024 403.5655115506656L1156.6310141638091 311.7581420560214L1184.8063792845794 311.7581420560214L1184.8063792845794 456.8080299096284L1165.1210373615897 456.8080299096284ZM1241.7902637984962 456.8080299096284L1222.104921875507 456.8080299096284L1222.104921875507 311.7581420560214L1241.7902637984962 311.7581420560214L1241.7902637984962 456.8080299096284ZM1266.655958859115 444.57664055689366L1276.5849690395698 427.9995105164815Q1284.0677013494783 434.21593428163607 1293.39233699721 438.1587586141646Q1302.716972644942 442.1015829466932 1315.149820175251 442.1015829466932L1315.149820175251 442.1015829466932Q1330.0577253157608 442.1015829466932 1338.749206691116 435.88515918153865Q1347.4694678061242 429.6687354163841 1347.4694678061242 419.106570963552L1347.4694678061242 419.106570963552Q1347.4694678061242 414.73205053622104 1346.2319390010239 411.0194641209203Q1344.9656304562704 407.2780979659662 1341.33938325993 403.85330894720045Q1337.71313606359 400.4572996680882 1331.2089149019007 397.03251064932255Q1324.6759140005574 393.6077216305568 1314.3152077252998 389.66489729802817L1314.3152077252998 389.66489729802817Q1303.119889000091 385.3191566103507 1295.3493592936475 381.0597551416336Q1287.5788295872044 376.8291334125701 1282.8013928047244 371.7351194939018Q1278.052735761898 366.6698853148869 1275.9805945068465 360.5685805083463Q1273.908453251795 354.4384959621522 1273.908453251795 346.58162703674856L1273.908453251795 346.58162703674856Q1273.908453251795 338.89743654926576 1277.1030043533328 332.0766382513878Q1280.3263351945243 325.2270602138564 1286.6578779182928 320.16182603484157Q1292.9606409024077 315.06781211617323 1302.198937331179 312.16105841117036Q1311.408454020297 309.28308444582103 1323.2081472782293 309.28308444582103L1323.2081472782293 309.28308444582103Q1336.072690903341 309.28308444582103 1346.2319390010239 311.8732610146354Q1356.362407359054 314.46343758344983 1366.3201972791626 319.21209462627627L1366.3201972791626 319.21209462627627L1359.067702886482 335.99068284426295Q1352.0166666713762 331.8464003341599 1342.6056918046838 329.054765587771Q1333.1659371983383 326.2631308413822 1322.8052309230802 326.2631308413822L1322.8052309230802 326.2631308413822Q1309.1348545876713 326.2631308413822 1301.2492059226138 331.5586029376249Q1293.39233699721 336.82529529421424 1293.39233699721 345.5455564092228L1293.39233699721 345.5455564092228Q1293.39233699721 349.68983891932584 1294.5147468436962 352.8843900208636Q1295.6659364298362 356.1077208620548 1299.090725448602 359.10081378601814Q1302.486734727714 362.12268644963495 1308.6168192739083 365.23089833221223Q1314.718124080449 368.3391102147895 1324.8773721781317 372.05169663009025L1324.8773721781317 372.05169663009025Q1336.9073033532923 376.6276752349957 1345.1958683734983 381.3763322778221Q1353.4844333937044 386.15376906030195 1358.434548614105 391.5355803755053Q1363.4134435741598 396.9173916907086 1365.6007037878253 403.13381545586316Q1367.7591842618372 409.3502392210177 1367.7591842618372 416.80419179127256L1367.7591842618372 416.80419179127256Q1367.7591842618372 426.96343988895575 1363.845139668962 434.8490885540129Q1359.9023153364333 442.70595747941655 1352.9663980799414 448.2028877532338Q1346.001701083796 453.6998180270511 1336.2741490809153 456.49145277344Q1326.5465970780347 459.2830875198288 1315.149820175251 459.2830875198288L1315.149820175251 459.2830875198288Q1300.0116771175135 459.2830875198288 1287.5788295872044 455.25392396833973Q1275.1459820568953 451.22476041685064 1266.655958859115 444.57664055689366L1266.655958859115 444.57664055689366Z " fill="#00aa00" transform="matrix(0.6397325233248898,0,0,0.6397325233248897,0,54.161632228670456)"/></g></svg>